#N canvas 535 94 645 539 12;
#X obj 299 250 catch~ out;
#X obj 294 337 dac~;
#X obj 178 19 loadbang;
#X obj 343 134 bng 19 250 50 0 empty empty empty 0 -10 0 12 #fcfcfc #000000 #000000;
#N canvas 84 338 450 300 subpatch 0;
#X restore 463 216 pd subpatch;
#X obj 84 184 f;
#X obj 84 147 until;
#X msg 191 144 0;
#X obj 52 318 pack f f;
#X obj 52 264 t f f;
#X obj 178 75 t b b b b b;
#X obj 137 216 + 1;
#X obj 162 435 s pd-subpatch;
#X msg 52 351 obj \$2 100 mo \$1;
#X msg 187 379 clear;
#X obj 110 290 * 40;
#X obj 342 171 s mo;
#X msg 382 133 stop;
#X obj 178 46 bng 19 250 50 0 empty empty empty 0 -10 0 12 #fcfcfc #000000 #000000;
#X obj 299 294 *~ 0.01;
#X obj 389 263 /;
#X msg 389 231 1 \$1;
#X msg 83 121 35;
#X text 34 84 number of files;
#X text 80 98 vvv;
#X text 355 99 manually start/stop if needed;
#X obj 150 186 print Number of files;
#X connect 0 0 19 0;
#X connect 2 0 18 0;
#X connect 3 0 16 0;
#X connect 5 0 11 0;
#X connect 5 0 9 0;
#X connect 6 0 5 0;
#X connect 7 0 5 1;
#X connect 8 0 13 0;
#X connect 9 0 8 0;
#X connect 9 1 15 0;
#X connect 10 1 3 0;
#X connect 10 2 22 0;
#X connect 10 3 14 0;
#X connect 10 4 7 0;
#X connect 11 0 5 1;
#X connect 13 0 12 0;
#X connect 14 0 12 0;
#X connect 15 0 8 1;
#X connect 17 0 16 0;
#X connect 18 0 10 0;
#X connect 19 0 1 0;
#X connect 19 0 1 1;
#X connect 20 0 19 1;
#X connect 21 0 20 0;
#X connect 22 0 6 0;
#X connect 22 0 21 0;
#X connect 22 0 26 0;
