#N canvas 367 163 450 300 12;
#X obj 50 42 bng 19 250 50 0 empty empty empty 0 -10 0 12 #fcfcfc #000000 #000000;
#X obj 137 106 delay 500;
#X msg 137 130 start;
#X obj 36 163 readsf~;
#X obj 36 93 f \$1;
#X msg 36 127 open _\$1.wav;
#X obj 35 205 throw~ out;
#X obj 204 21 r mo;
#X obj 204 45 route bang;
#X connect 0 0 1 0;
#X connect 0 0 4 0;
#X connect 1 0 2 0;
#X connect 2 0 3 0;
#X connect 3 0 6 0;
#X connect 3 1 0 0;
#X connect 4 0 5 0;
#X connect 5 0 3 0;
#X connect 7 0 8 0;
#X connect 8 0 0 0;
#X connect 8 1 3 0;
